<svg id="Layer_1" data-name="Layer 1" xmlns="http://www.w3.org/2000/svg" xmlns:xlink="http://www.w3.org/1999/xlink" viewBox="0 0 2247.08 830.54"><defs><style>.cls-1{fill:#fff;}.cls-2{fill:url(#linear-gradient);}.cls-3{fill:url(#linear-gradient-2);}.cls-4{opacity:0.24;fill:url(#radial-gradient);}.cls-5{fill:url(#linear-gradient-3);}.cls-6{fill:none;stroke:#231f20;stroke-miterlimit:10;stroke-width:0.25px;}.cls-7{fill:#231f20;}.cls-8{fill:#4e4d4e;}.cls-9{fill:url(#linear-gradient-4);}.cls-10{fill:#414142;}.cls-11{fill:url(#linear-gradient-5);}.cls-12{fill:#2a2b2a;}</style><linearGradient id="linear-gradient" x1="954.46" y1="402.12" x2="1078.71" y2="402.12" gradientTransform="matrix(1, 0, 0, -1, -10.6, 855.72)" gradientUnits="userSpaceOnUse"><stop offset="0" stop-color="#2f2f82"/><stop offset="0.16" stop-color="#592d84"/><stop offset="0.54" stop-color="#ae2888"/><stop offset="0.72" stop-color="#db258a"/><stop offset="0.96" stop-color="#f389b2"/></linearGradient><linearGradient id="linear-gradient-2" x1="1746.28" y1="402.12" x2="1870.54" y2="402.12" xlink:href="#linear-gradient"/><radialGradient id="radial-gradient" cx="535.22" cy="5571.26" r="301.01" gradientTransform="translate(-298.92 210.11) scale(1.28 0.11)" gradientUnits="userSpaceOnUse"><stop offset="0.13" stop-color="#231f20"/><stop offset="0.24" stop-color="#272324"/><stop offset="0.36" stop-color="#343031"/><stop offset="0.48" stop-color="#494546"/><stop offset="0.61" stop-color="#666364"/><stop offset="0.74" stop-color="#8c8a8a"/><stop offset="0.87" stop-color="#bab9b9"/><stop offset="0.99" stop-color="#f0f0f0"/><stop offset="1" stop-color="#f2f2f2"/></radialGradient><linearGradient id="linear-gradient-3" x1="66.39" y1="13.63" x2="501.91" y2="346.76" gradientUnits="userSpaceOnUse"><stop offset="0" stop-color="#91d8f7"/><stop offset="0.19" stop-color="#8ed6f5"/><stop offset="0.32" stop-color="#85d0ef"/><stop offset="0.43" stop-color="#76c5e5"/><stop offset="0.53" stop-color="#61b6d6"/><stop offset="0.62" stop-color="#46a3c4"/><stop offset="0.67" stop-color="#3395b7"/><stop offset="0.77" stop-color="#246e8d"/><stop offset="0.93" stop-color="#0e3753"/><stop offset="1" stop-color="#06213c"/></linearGradient><linearGradient id="linear-gradient-4" x1="198.45" y1="694.03" x2="291.57" y2="360" gradientUnits="userSpaceOnUse"><stop offset="0.04" stop-color="#e96d9d"/><stop offset="0.3" stop-color="#d13589"/><stop offset="1" stop-color="#30235f"/></linearGradient><linearGradient id="linear-gradient-5" x1="743.53" y1="403.71" x2="405.48" y2="506.86" gradientUnits="userSpaceOnUse"><stop offset="0" stop-color="#ebf2ca"/><stop offset="0.14" stop-color="#ebf2c8"/><stop offset="0.21" stop-color="#ecf1c0"/><stop offset="0.27" stop-color="#eeefb2"/><stop offset="0.33" stop-color="#f0ec9e"/><stop offset="0.37" stop-color="#f3e885"/><stop offset="0.42" stop-color="#f7e466"/><stop offset="0.44" stop-color="#fae150"/><stop offset="0.93" stop-color="#f58821"/></linearGradient></defs><path class="cls-1" d="M737.05,357.6H764.2a5.76,5.76,0,0,1,4.94,3.29l53.2,115.2c1.1,2.19,2.2,3.3,3.29,3.3s2.2-1.1,3.3-3.3l52.93-115.2a5.81,5.81,0,0,1,5.21-3.29H914c2.2,0,3,1.37,2.2,3.29l-86.67,189a4.15,4.15,0,0,1-3.85,2.46,4.52,4.52,0,0,1-4.11-2.46l-86.67-189C734,359,734.86,357.6,737.05,357.6Z" transform="translate(1.53 -9.62)"/><path class="cls-2" d="M943.86,384.75V361.16a3.31,3.31,0,0,1,3.56-3.56h117.12a3.31,3.31,0,0,1,3.57,3.56v23.59a3.32,3.32,0,0,1-3.57,3.56H947.42A3.31,3.31,0,0,1,943.86,384.75Zm0,57.05a3.32,3.32,0,0,1,3.56-3.57h117.12a3.32,3.32,0,0,1,3.57,3.57v23.58a3.32,3.32,0,0,1-3.57,3.57H947.42a3.31,3.31,0,0,1-3.56-3.57Zm3.56,77.07h117.12a3.32,3.32,0,0,1,3.57,3.56V546a3.31,3.31,0,0,1-3.57,3.56H947.42a3.3,3.3,0,0,1-3.56-3.56V522.43A3.31,3.31,0,0,1,947.42,518.87Z" transform="translate(1.53 -9.62)"/><path class="cls-1" d="M1105.41,361.16a3.3,3.3,0,0,1,3.56-3.56h4.11a9.09,9.09,0,0,1,5.76,2.47l105.05,112.72c1.38,1.38,2.2,1.92,3.29,1.92s1.92-1.38,1.92-4.12V361.16a3.31,3.31,0,0,1,3.56-3.56h25.79a3.3,3.3,0,0,1,3.56,3.56V546a3.3,3.3,0,0,1-3.56,3.56h-3.85a8.29,8.29,0,0,1-6-2.74L1107.86,395.45a10.67,10.67,0,0,1-2.47-6.31v-28Zm0,76c0-2.19,1.09-2.47,2.46-.82l28,30.17a9.23,9.23,0,0,1,2.47,6V546a3.31,3.31,0,0,1-3.57,3.56H1109a3.3,3.3,0,0,1-3.56-3.56V437.13Z" transform="translate(1.53 -9.62)"/><path class="cls-1" d="M1303.71,384.75V361.16a3.3,3.3,0,0,1,3.56-3.56h45.53c7.4,0,12.61,0,15.62.27,60.08,4.11,90.25,49.92,90.25,95.72s-30.17,90.24-90.25,95.73c-3,.27-8.23.27-15.62.27h-45.53a3.3,3.3,0,0,1-3.56-3.56V418.48a3.31,3.31,0,0,1,3.56-3.56h25.78a3.31,3.31,0,0,1,3.57,3.56v92.43c0,4.67,3,7.68,7.68,7.68h7.13c8,0,12.62,0,15.64-.28,78.72-7.68,76.53-130-8-130h-51.84A3.3,3.3,0,0,1,1303.71,384.75Z" transform="translate(1.53 -9.62)"/><path class="cls-1" d="M1551.37,384.75V361.16a3.3,3.3,0,0,1,3.56-3.56h150.86a3.3,3.3,0,0,1,3.56,3.56v23.59a3.31,3.31,0,0,1-3.56,3.56H1554.93A3.31,3.31,0,0,1,1551.37,384.75Zm62.27,33.73a3.45,3.45,0,0,1,3.56-3.56H1643a3.31,3.31,0,0,1,3.56,3.56V546a3.31,3.31,0,0,1-3.56,3.56H1617.2a3.45,3.45,0,0,1-3.56-3.56Z" transform="translate(1.53 -9.62)"/><path class="cls-3" d="M1735.68,384.75V361.16a3.3,3.3,0,0,1,3.56-3.56h117.12a3.32,3.32,0,0,1,3.57,3.56v23.59a3.32,3.32,0,0,1-3.57,3.56H1739.24A3.31,3.31,0,0,1,1735.68,384.75Zm0,57.05a3.31,3.31,0,0,1,3.56-3.57h117.12a3.32,3.32,0,0,1,3.57,3.57v23.58a3.32,3.32,0,0,1-3.57,3.57H1739.24a3.31,3.31,0,0,1-3.56-3.57Zm3.57,77.07h117.12a3.32,3.32,0,0,1,3.57,3.56V546a3.31,3.31,0,0,1-3.57,3.56H1739.25a3.3,3.3,0,0,1-3.56-3.56V522.43A3.3,3.3,0,0,1,1739.25,518.87Z" transform="translate(1.53 -9.62)"/><path class="cls-1" d="M2047.25,531.51l-15.1-20.87a3,3,0,0,0-4.66-.55c-6.58,5.52-17.52,11-35.35,11-86.41,0-86.41-135,0-135a60.18,60.18,0,0,1,35.1,11.54c1.93,1.37,3.54,1.12,4.92-.81L2047,375.71c1.11-1.66,1.11-3.84-.82-5-16.76-9.57-35.15-17.27-54.34-17.27-66.09,0-99,49.94-99,100.13,0,49.89,32.92,100.08,99,100.08,23.91,0,39.81-5.77,54.6-17.27A3.45,3.45,0,0,0,2047.25,531.51Z" transform="translate(1.53 -9.62)"/><path class="cls-1" d="M2091.69,357.6h25.78a3.31,3.31,0,0,1,3.57,3.56v69.39c0,4.66,3,7.67,7.68,7.67H2205c4.66,0,7.68-3,7.68-7.67V361.16a3.44,3.44,0,0,1,3.56-3.56H2242a3.32,3.32,0,0,1,3.57,3.56V546a3.31,3.31,0,0,1-3.57,3.56H2216.2a3.45,3.45,0,0,1-3.56-3.56V476.63c0-4.66-3-7.68-7.68-7.68H2091.68a3.32,3.32,0,0,1-3.56-3.57V361.16A3.32,3.32,0,0,1,2091.69,357.6Zm0,140.42h25.78a3.32,3.32,0,0,1,3.57,3.57V546a3.31,3.31,0,0,1-3.57,3.56h-25.78a3.31,3.31,0,0,1-3.56-3.56V501.59A3.32,3.32,0,0,1,2091.69,498Z" transform="translate(1.53 -9.62)"/><ellipse class="cls-4" cx="384.19" cy="798.74" rx="384.19" ry="31.8"/><path class="cls-5" d="M562,300.86l-42.58,24.88a50.87,50.87,0,0,1-33.45,3.12L28,214.41A31.48,31.48,0,0,1,23.54,213l-2.47-1.43,0,0c-2-1.78-1.71-4.45,5.34-8.54L76,174.39A22.43,22.43,0,0,1,92.65,172L315.46,226l145.88,35.31c6.51,1.62,21.18,5.61,14.05-3.19L316.75,45.48a6.67,6.67,0,0,1-1.29-3.62v-.72a6.73,6.73,0,0,1,3.18-5.4l41.58-25.27a5.91,5.91,0,0,1,5.88-.14l.39.24A6.31,6.31,0,0,1,368,12L564.87,277.2A17.25,17.25,0,0,1,562,300.86Z" transform="translate(1.53 -9.62)"/><path class="cls-6" d="M562,300.86a15,15,0,0,1-2.26,1.59L524,323.4a47.77,47.77,0,0,1-4.56,2.34Z" transform="translate(1.53 -9.62)"/><path class="cls-7" d="M461.34,261.27,315.46,226V41.86a6.67,6.67,0,0,0,1.29,3.62l158.64,212.6C482.52,266.88,467.85,262.89,461.34,261.27Z" transform="translate(1.53 -9.62)"/><path class="cls-8" d="M714.41,211.88,712.49,213a4.88,4.88,0,0,0-.58.34L707.35,216,562,300.86a17.25,17.25,0,0,0,2.9-23.66L368,12a6.31,6.31,0,0,0-1.53-1.4Z" transform="translate(1.53 -9.62)"/><path class="cls-9" d="M366.73,810.34v1.25c-.3,3.06-2.58,4.57-10.1.22L307,783.09a22.63,22.63,0,0,1-10.36-13.19l-64.56-220-42.24-144c-1.85-6.48-5.72-21.18-9.78-10.58L75.08,639a6.2,6.2,0,0,1-2.38,2.82l-.75.46a6.65,6.65,0,0,1-6.26-.07L23,618.8A5.9,5.9,0,0,1,20,613.73v-.13a5.85,5.85,0,0,1,.49-2.34l131.46-303c4.11-9.45,14.94-10.81,23.87-5.7l37.66,22.13c10.55,6.34,19.23,14.19,22.65,26.16L365.65,804.76A25.62,25.62,0,0,1,366.73,810.34Z" transform="translate(1.53 -9.62)"/><path class="cls-6" d="M366.76,810.84v.1a4.72,4.72,0,0,1,0,.65v-1.25A3,3,0,0,1,366.76,810.84Z" transform="translate(1.53 -9.62)"/><path class="cls-7" d="M232.06,549.92,72.7,641.77A6.2,6.2,0,0,0,75.08,639L180,395.34c4.06-10.6,7.93,4.1,9.78,10.58Z" transform="translate(1.53 -9.62)"/><path class="cls-10" d="M175.78,302.55c-8.93-5.11-19.76-3.75-23.87,5.7l-131.46,303A5.85,5.85,0,0,0,20,613.6l.67-402.28.42.25,0,0A10.64,10.64,0,0,0,23.54,213l150.9,88.71Z" transform="translate(1.53 -9.62)"/><path class="cls-11" d="M717.5,558.55l.88,48.7a5.82,5.82,0,0,1-2.86,5.15l-.29.16a6,6,0,0,1-2.08.62l-327.4,36.24a17.28,17.28,0,0,1-19-15l0-48.08A50.54,50.54,0,0,1,381,555.14L708.17,216.45a21,21,0,0,1,3.74-3.08,4.88,4.88,0,0,1,.58-.34c3.48-1.82,7.09-1.15,7,8.85l.65,57a22.53,22.53,0,0,1-6.32,15.55L555.33,459.77,451.54,568c-4.68,4.82-15.48,15.48-4.29,13.77L710.09,552a6.54,6.54,0,0,1,3.76.69l.63.37A6.62,6.62,0,0,1,717.5,558.55Z" transform="translate(1.53 -9.62)"/><path class="cls-6" d="M366.76,586.37l0,48.08a18.74,18.74,0,0,1-.16-2.24l0-41.49A39.11,39.11,0,0,1,366.76,586.37Z" transform="translate(1.53 -9.62)"/><path class="cls-7" d="M713.85,552.7a6.54,6.54,0,0,0-3.76-.69L447.25,581.75c-11.19,1.71-.39-9,4.29-13.77L555.33,459.77Z" transform="translate(1.53 -9.62)"/><path class="cls-12" d="M366.76,810.84l0-27V634.45a17.28,17.28,0,0,0,19,15l327.4-36.24a6,6,0,0,0,2.08-.62L366.76,811.62Z" transform="translate(1.53 -9.62)"/><line class="cls-6" x1="368.26" y1="802.49" x2="368.26" y2="801.98"/><path class="cls-10" d="M366.76,586.37a39.11,39.11,0,0,0-.22,4.35l0,41.49.16,151.63v26.5a25.62,25.62,0,0,0-1.08-5.58L236.09,350.84c-3.42-12-12.1-19.82-22.65-26.16l153.32,90.15Z" transform="translate(1.53 -9.62)"/><path class="cls-12" d="M711.91,213.37a21,21,0,0,0-3.74,3.08L381,555.14a50.54,50.54,0,0,0-14.22,31.23V414.83l152.63-89.09A47.77,47.77,0,0,0,524,323.4l35.76-20.95L707.35,216Z" transform="translate(1.53 -9.62)"/><path class="cls-8" d="M519.39,325.74,366.76,414.83,213.44,324.68l-37.66-22.13-1.34-.81L23.54,213A31.48,31.48,0,0,0,28,214.41l458,114.45A50.87,50.87,0,0,0,519.39,325.74Z" transform="translate(1.53 -9.62)"/></svg>