<svg id="Layer_1" data-name="Layer 1" xmlns="http://www.w3.org/2000/svg" viewBox="0 0 200 60"><defs><style>.cls-1{fill:#280e30;}</style></defs><path class="cls-1" d="M54.51,25.28c-.26-.28-.52-.56-.8-.83A14.85,14.85,0,0,0,52,23.07l-.53-.36c-.33-.21-.69-.37-1-.56s-.76-.45-1.16-.63L49,21.39a15.38,15.38,0,0,0-2.6-.81l-.22,0a15.73,15.73,0,0,0-2.93-.29h0a15.73,15.73,0,0,0-2.93.29l-.22,0a15.38,15.38,0,0,0-2.6.81l-.34.13c-.46.21-.89.48-1.33.73A3.74,3.74,0,0,0,34.5,27.4a3.8,3.8,0,0,0,4.91,1.4,5.05,5.05,0,0,1,.53-.24,7.67,7.67,0,0,1,3.27-.77h0a7.78,7.78,0,0,1,6.43,3.39A7.61,7.61,0,0,1,51,35.49v19.2a3.75,3.75,0,0,0,3.73,3.81,3.82,3.82,0,0,0,3.81-3.81V35.49a15.13,15.13,0,0,0-4-10.21"/><path class="cls-1" d="M30.39,25.28c-.26-.28-.52-.56-.79-.83a15.79,15.79,0,0,0-1.68-1.38l-.53-.36c-.33-.21-.69-.37-1-.56s-.75-.45-1.16-.63l-.34-.13a15,15,0,0,0-2.59-.81l-.23,0a15.63,15.63,0,0,0-2.92-.29h0a15.73,15.73,0,0,0-2.93.29l-.22,0a15.1,15.1,0,0,0-2.6.81l-.34.13c-.47.21-.9.48-1.34.73a3.76,3.76,0,0,0-1.29,5.15,3.81,3.81,0,0,0,4.92,1.4,5.05,5.05,0,0,1,.53-.24,7.67,7.67,0,0,1,3.27-.77h0a7.79,7.79,0,0,1,6.44,3.39,7.61,7.61,0,0,1,1.33,4.31v19.2a3.76,3.76,0,0,0,3.74,3.81,3.83,3.83,0,0,0,3.81-3.81V35.49a15.09,15.09,0,0,0-4-10.21"/><path class="cls-1" d="M0,54.61V24a3.75,3.75,0,0,1,3.81-3.73A3.73,3.73,0,0,1,7.54,24V54.61a3.77,3.77,0,1,1-7.54,0"/><path class="cls-1" d="M113.59,54.61V24a3.77,3.77,0,0,1,7.54,0V54.61a3.77,3.77,0,1,1-7.54,0"/><path class="cls-1" d="M136.57,28.8a3.8,3.8,0,0,0,4.91-1.4,3.73,3.73,0,0,0-1.18-5l-.36-.2c-.39-.21-.75-.45-1.16-.63l-.34-.13a15.1,15.1,0,0,0-2.6-.81l-.22,0a14.12,14.12,0,0,0-5.79,0l-.22,0a15.38,15.38,0,0,0-2.6.81l-.34.13c-.4.18-.77.42-1.16.63l-.36.2a3.73,3.73,0,0,0-1.18,5,3.8,3.8,0,0,0,4.91,1.4c.17-.1.36-.16.53-.24a8.57,8.57,0,0,1,.85-.3c.22-.08.43-.18.66-.24a7.4,7.4,0,0,1,1.77-.23h.08a7.25,7.25,0,0,1,1.76.23c.23.06.44.16.66.24a7.76,7.76,0,0,1,.85.3,5.05,5.05,0,0,1,.53.24"/><path class="cls-1" d="M93.81,21.76h0l-1.58-.57a.77.77,0,0,0-.15,0h0a3.69,3.69,0,0,0-2.76.2c-.08,0-.13.11-.21.15a3.9,3.9,0,0,0-.9.67,3.85,3.85,0,0,0-.76,1.25,3.77,3.77,0,0,0,2.22,4.85l.08,0,1,.42a11.44,11.44,0,0,1-1.1,21.41v0h0A3.77,3.77,0,0,0,87.44,55,3.72,3.72,0,0,0,92,57.28h0c.07,0,.13,0,.19,0l1.38-.5a19,19,0,0,0,11.58-17.53,19.49,19.49,0,0,0-.84-5.64A19.1,19.1,0,0,0,93.81,21.76"/><path class="cls-1" d="M78.31,21.76h0l1.57-.57a.77.77,0,0,1,.15,0h0a3.69,3.69,0,0,1,2.76.2c.08,0,.13.11.21.15a3.9,3.9,0,0,1,.9.67,3.85,3.85,0,0,1,.76,1.25,3.77,3.77,0,0,1-2.22,4.85l-.08,0-1,.42a11.44,11.44,0,0,0,1.1,21.41v0h0A3.77,3.77,0,0,1,84.68,55a3.72,3.72,0,0,1-4.59,2.27h0c-.06,0-.13,0-.19,0l-1.38-.5A19.14,19.14,0,0,1,67.8,44.86a18.79,18.79,0,0,1-.86-5.64A19.08,19.08,0,0,1,78.31,21.76"/><path class="cls-1" d="M174.76,47.21a10.12,10.12,0,0,0-5.59-9.27l-.38-.2c-.2-.12-.41-.23-.61-.33a3.83,3.83,0,0,0-1.31-.27,3.78,3.78,0,0,0-3.69,3.17v1.31a3.78,3.78,0,0,0,2.13,2.81l.08,0a3.13,3.13,0,0,1,1.82,2.81c-.07.61-.45,4-5.33,4-3.18-.14-5-1.11-6.69-3.39l-.17-.19a3.7,3.7,0,0,0-2.89-1.44,4,4,0,0,0-3.74,2.82c0,.09-.06.18-.08.27s0,.28,0,.42a5.7,5.7,0,0,0,.21,1.45,8.67,8.67,0,0,0,3.39,4.33A16.85,16.85,0,0,0,162,58.72a16.61,16.61,0,0,0,3.7-.39l.12,0c.4-.1.78-.22,1.15-.35a11,11,0,0,0,3.77-2.12l.1-.08a12.1,12.1,0,0,0,1.06-1.09A10.79,10.79,0,0,0,174.57,49a10.22,10.22,0,0,0,.19-1.69s0,0,0,0,0,0,0,0"/><path class="cls-1" d="M174.52,27.86a10.38,10.38,0,0,0-3.39-4.34A16.85,16.85,0,0,0,161,20.32a16,16,0,0,0-3.7.4l-.12,0c-.4.1-.78.22-1.15.35a11,11,0,0,0-3.77,2.12l-.1.08a12.1,12.1,0,0,0-1.06,1.09,10.8,10.8,0,0,0-2.64,5.67,10.43,10.43,0,0,0-.19,1.7s0,0,0,0a11.51,11.51,0,0,0,4.49,8.58,13.06,13.06,0,0,0,1.09.74c.36.22.73.41,1.1.59a15.24,15.24,0,0,0,1.47.61,3.34,3.34,0,0,0,.7.14A3.82,3.82,0,0,0,160.88,39v-.84A3.83,3.83,0,0,0,158.62,35l0,0c-1.7-.63-2.79-1.63-2.79-3.26.07-.61.45-4,5.33-4,3.18.14,5,1.11,6.69,3.39l.17.19a3.71,3.71,0,0,0,2.89,1.45A4,4,0,0,0,174.61,30c0-.09.06-.18.08-.27s0-.28,0-.42a5.56,5.56,0,0,0-.21-1.44"/><path class="cls-1" d="M196.22,51.16h-.33c-.57-.07-3.38-.41-3.88-4.13V5a3.77,3.77,0,0,0-7.54,0V46a27.59,27.59,0,0,0,.76,5,13.66,13.66,0,0,0,2.12,3.77l.09.1a10.91,10.91,0,0,0,1.09,1.06,10.65,10.65,0,0,0,5.67,2.64,9.23,9.23,0,0,0,1.69.19h.35a3.78,3.78,0,0,0,0-7.55"/></svg>