<svg id="Layer_1" data-name="Layer 1" xmlns="http://www.w3.org/2000/svg" xmlns:xlink="http://www.w3.org/1999/xlink" viewBox="0 0 846.25 914.72"><defs><style>.cls-1{opacity:0.24;fill:url(#radial-gradient);}.cls-2{fill:url(#linear-gradient);}.cls-3{fill:none;stroke:#231f20;stroke-miterlimit:10;stroke-width:0.25px;}.cls-4{fill:#231f20;}.cls-5{fill:#4e4d4e;}.cls-6{fill:url(#linear-gradient-2);}.cls-7{fill:#414142;}.cls-8{fill:url(#linear-gradient-3);}.cls-9{fill:#2a2b2a;}</style><radialGradient id="radial-gradient" cx="416.66" cy="5986.58" r="331.52" gradientTransform="translate(-108.67 247.18) scale(1.28 0.11)" gradientUnits="userSpaceOnUse"><stop offset="0.13" stop-color="#231f20"/><stop offset="0.24" stop-color="#272324"/><stop offset="0.36" stop-color="#343031"/><stop offset="0.48" stop-color="#494546"/><stop offset="0.61" stop-color="#666364"/><stop offset="0.74" stop-color="#8c8a8a"/><stop offset="0.87" stop-color="#bab9b9"/><stop offset="0.99" stop-color="#f0f0f0"/><stop offset="1" stop-color="#f2f2f2"/></radialGradient><linearGradient id="linear-gradient" x1="78.94" y1="40.46" x2="558.6" y2="407.36" gradientUnits="userSpaceOnUse"><stop offset="0" stop-color="#91d8f7"/><stop offset="0.19" stop-color="#8ed6f5"/><stop offset="0.32" stop-color="#85d0ef"/><stop offset="0.43" stop-color="#76c5e5"/><stop offset="0.53" stop-color="#61b6d6"/><stop offset="0.62" stop-color="#46a3c4"/><stop offset="0.67" stop-color="#3395b7"/><stop offset="0.77" stop-color="#246e8d"/><stop offset="0.93" stop-color="#0e3753"/><stop offset="1" stop-color="#06213c"/></linearGradient><linearGradient id="linear-gradient-2" x1="224.39" y1="789.83" x2="326.94" y2="421.94" gradientUnits="userSpaceOnUse"><stop offset="0.04" stop-color="#e96d9d"/><stop offset="0.3" stop-color="#d13589"/><stop offset="1" stop-color="#30235f"/></linearGradient><linearGradient id="linear-gradient-3" x1="824.71" y1="470.08" x2="452.4" y2="583.68" gradientUnits="userSpaceOnUse"><stop offset="0" stop-color="#ebf2ca"/><stop offset="0.14" stop-color="#ebf2c8"/><stop offset="0.21" stop-color="#ecf1c0"/><stop offset="0.27" stop-color="#eeefb2"/><stop offset="0.33" stop-color="#f0ec9e"/><stop offset="0.37" stop-color="#f3e885"/><stop offset="0.42" stop-color="#f7e466"/><stop offset="0.44" stop-color="#fae150"/><stop offset="0.93" stop-color="#f58821"/></linearGradient></defs><ellipse class="cls-1" cx="423.13" cy="879.69" rx="423.13" ry="35.03"/><path class="cls-2" d="M624.75,356.81,577.86,384.2A56,56,0,0,1,541,387.64l-504.37-126a32.26,32.26,0,0,1-4.88-1.52L29,258.49l0,0c-2.22-1.95-1.88-4.9,5.88-9.4l54.68-31.54a24.7,24.7,0,0,1,18.3-2.61l245.39,59.4,160.66,38.9c7.17,1.78,23.33,6.17,15.47-3.52L354.68,75.54a7.36,7.36,0,0,1-1.42-4v-.79a7.42,7.42,0,0,1,3.5-6L402.55,37a6.52,6.52,0,0,1,6.48-.16l.42.27a6.48,6.48,0,0,1,1.69,1.54l216.8,292.11A19,19,0,0,1,624.75,356.81Z" transform="translate(-4.14 -36.05)"/><path class="cls-3" d="M624.75,356.81a17.54,17.54,0,0,1-2.48,1.75l-39.39,23.07a50.49,50.49,0,0,1-5,2.57Z" transform="translate(-4.14 -36.05)"/><path class="cls-4" d="M513.92,313.21l-160.66-38.9V71.55a7.36,7.36,0,0,0,1.42,4L529.39,309.69C537.25,319.38,521.09,315,513.92,313.21Z" transform="translate(-4.14 -36.05)"/><path class="cls-5" d="M792.64,258.81l-2.12,1.26a5,5,0,0,0-.63.38l-5,2.93L624.75,356.81a19,19,0,0,0,3.19-26.06L411.14,38.64a6.48,6.48,0,0,0-1.69-1.54Z" transform="translate(-4.14 -36.05)"/><path class="cls-6" d="M409.72,917.92v1.38c-.33,3.37-2.84,5-11.13.24l-54.68-31.63a24.92,24.92,0,0,1-11.4-14.53L261.41,631.1,214.88,472.51c-2-7.14-6.3-23.32-10.76-11.65L88.52,729.16a6.86,6.86,0,0,1-2.62,3.1l-.83.51a7.31,7.31,0,0,1-6.9-.08L31.18,707a6.51,6.51,0,0,1-3.37-5.59v-.14a6.44,6.44,0,0,1,.54-2.57L173.13,365c4.53-10.42,16.45-11.91,26.3-6.28L240.89,383c11.63,7,21.18,15.63,24.95,28.81L408.53,911.78A27,27,0,0,1,409.72,917.92Z" transform="translate(-4.14 -36.05)"/><path class="cls-3" d="M409.76,918.47v.11a4.29,4.29,0,0,1,0,.72v-1.38A2.74,2.74,0,0,1,409.76,918.47Z" transform="translate(-4.14 -36.05)"/><path class="cls-4" d="M261.41,631.1,85.9,732.26a6.86,6.86,0,0,0,2.62-3.1l115.6-268.3c4.46-11.67,8.73,4.51,10.76,11.65Z" transform="translate(-4.14 -36.05)"/><path class="cls-7" d="M199.43,358.67c-9.85-5.63-21.77-4.14-26.3,6.28L28.35,698.67a6.44,6.44,0,0,0-.54,2.57l.73-443,.47.27,0,0a11.07,11.07,0,0,0,2.72,1.58L198,357.78Z" transform="translate(-4.14 -36.05)"/><path class="cls-8" d="M796,640.61l1,53.63a6.41,6.41,0,0,1-3.15,5.68l-.31.18a7,7,0,0,1-2.29.68L430.67,740.69a19,19,0,0,1-20.95-16.49l0-53a55.65,55.65,0,0,1,15.66-34.39l360.35-373a22.5,22.5,0,0,1,4.12-3.39,5,5,0,0,1,.63-.38c3.84-2,7.81-1.26,7.75,9.74l.71,62.81a24.81,24.81,0,0,1-7,17.13L617.43,531.82,503.12,651c-5.15,5.31-17,17-4.72,15.16l289.48-32.75a7.14,7.14,0,0,1,4.14.76l.7.4A7.3,7.3,0,0,1,796,640.61Z" transform="translate(-4.14 -36.05)"/><path class="cls-3" d="M409.76,671.25l0,53a22.76,22.76,0,0,1-.17-2.46l0-45.7A42.21,42.21,0,0,1,409.76,671.25Z" transform="translate(-4.14 -36.05)"/><path class="cls-4" d="M792,634.17a7.14,7.14,0,0,0-4.14-.76L498.4,666.16c-12.32,1.88-.43-9.85,4.72-15.16L617.43,531.82Z" transform="translate(-4.14 -36.05)"/><path class="cls-9" d="M409.76,918.47l0-29.73V724.2a19,19,0,0,0,20.95,16.49l360.59-39.91a7,7,0,0,0,2.29-.68L409.76,919.33Z" transform="translate(-4.14 -36.05)"/><line class="cls-3" x1="405.58" y1="883.82" x2="405.58" y2="883.26"/><path class="cls-7" d="M409.76,671.25a42.21,42.21,0,0,0-.24,4.79l0,45.7.17,167v29.18a27,27,0,0,0-1.19-6.14L265.84,411.85C262.07,398.67,252.52,390,240.89,383l168.87,99.28Z" transform="translate(-4.14 -36.05)"/><path class="cls-9" d="M789.89,260.45a22.5,22.5,0,0,0-4.12,3.39l-360.35,373a55.65,55.65,0,0,0-15.66,34.39V482.32l168.1-98.12a50.49,50.49,0,0,0,5-2.57l39.39-23.07,162.59-95.18Z" transform="translate(-4.14 -36.05)"/><path class="cls-5" d="M577.86,384.2l-168.1,98.12L240.89,383l-41.46-24.37-1.48-.89L31.76,260.07a32.26,32.26,0,0,0,4.88,1.52L541,387.64A56,56,0,0,0,577.86,384.2Z" transform="translate(-4.14 -36.05)"/></svg>