<?xml version="1.0" encoding="utf-8"?>
<!-- Generator: Adobe Illustrator 25.2.1, SVG Export Plug-In . SVG Version: 6.00 Build 0)  -->
<svg version="1.1" id="Layer_1" xmlns="http://www.w3.org/2000/svg" xmlns:xlink="http://www.w3.org/1999/xlink" x="0px" y="0px"
	 viewBox="0 0 2267.72 566.93" style="enable-background:new 0 0 2267.72 566.93;" xml:space="preserve">
<style type="text/css">
	.st0{fill:url(#SVGID_1_);}
	.st1{fill:none;stroke:#000000;stroke-width:0.25;stroke-miterlimit:10;}
	.st2{fill:url(#SVGID_2_);}
	.st3{fill:url(#SVGID_3_);}
	.st4{fill:url(#SVGID_4_);}
	.st5{fill:url(#SVGID_5_);}
	.st6{opacity:0.11;fill:url(#SVGID_6_);}
	.st7{fill:none;}
	.st8{fill:url(#SVGID_7_);}
	.st9{fill:url(#SVGID_8_);}
	.st10{fill:url(#SVGID_9_);}
</style>
<linearGradient id="SVGID_1_" gradientUnits="userSpaceOnUse" x1="380.4382" y1="75.9524" x2="322.1888" y2="359.7397" gradientTransform="matrix(1 0 0 1 -10.602 5.6051)">
	<stop  offset="1.981938e-06" style="stop-color:#B5D334"/>
	<stop  offset="0.3114" style="stop-color:#81AC3D"/>
	<stop  offset="0.7163" style="stop-color:#368540"/>
</linearGradient>
<path class="st0" d="M515.76,73c-1.07,0.18-3.41,0.42-4.66,0.6c-0.95,0.12-1.97,0.3-2.98,0.42c-0.89,0.12-1.79,0.24-2.71,0.3
	c-0.06,0.06-0.18,0.06-0.24,0.06c-29.02,3.72-80.29,5.81-119.74,30.09c-2.83,1.76-5.57,3.6-8.28,5.57
	c-1.49,1.07-2.86,2.17-4.29,3.31c-1.61,1.31-3.25,2.62-4.86,4.05c-4.74,4.14-9.27,8.82-13.47,13.97c-2.86,3.52-5.27,7.42-7.78,11.41
	c-0.06,0.06-0.06,0.12-0.12,0.18l-25.86,44.9h-0.12l-15.08,26.34l-17.49,30.24v0.06l-2.89,5.21c-28.9,50.44-55.89,6.32-59.17,0.6
	c-0.21-0.39-0.33-0.6-0.33-0.6l-2.92-5.21l-6.88-11.86l-15.67-27.17c13.71,9.03,30.75,1.55,42.31-6.52
	c0.54-0.36,1.07-0.72,1.55-1.07c0.54-0.36,1.07-0.8,1.58-1.16c1.19-0.83,2.26-1.67,3.22-2.5c0.54-0.42,1.01-0.83,1.49-1.25
	c1.07-0.95,2.06-1.79,2.83-2.59c1.13-1.07,1.91-1.97,2.26-2.5v-0.06l0.18-0.3c0.12-0.18,0.12-0.24,0.12-0.24l32.33-55.89
	l13.32-23.06c16.15-27.98,48.5-33.1,63.22-33.96c0.18,0,0.36,0,0.51-0.03l7.12-0.06L515.76,73z"/>
<path class="st1" d="M487.36,39.52c-0.06,0.06-0.18,0.06-0.24,0.06c-0.78,0.06-1.56,0.12-2.33,0.24
	C485.69,39.7,486.52,39.64,487.36,39.52z"/>
<path class="st1" d="M487.36,39.52c-0.06,0.06-0.18,0.06-0.24,0.06c-0.78,0.06-1.56,0.12-2.33,0.24
	C485.69,39.7,486.52,39.64,487.36,39.52z"/>
<linearGradient id="SVGID_2_" gradientUnits="userSpaceOnUse" x1="200.6933" y1="189.7746" x2="131.4337" y2="37.7597" gradientTransform="matrix(1 0 0 1 -10.602 5.6051)">
	<stop  offset="2.322916e-06" style="stop-color:#F493B5"/>
	<stop  offset="0.4262" style="stop-color:#E56A9D"/>
	<stop  offset="0.9687" style="stop-color:#D7147F"/>
</linearGradient>
<path class="st2" d="M255.47,187.8v0.06c-0.36,0.54-1.13,1.43-2.26,2.5c-0.77,0.8-1.76,1.64-2.83,2.59
	c-0.48,0.42-0.95,0.83-1.49,1.25c-0.95,0.83-2.03,1.67-3.22,2.5c-0.51,0.36-1.04,0.8-1.58,1.16c-0.48,0.36-1.01,0.72-1.55,1.07
	c-11.56,8.07-28.6,15.55-42.31,6.52l-4.98-8.64l-2.8-4.89l-2.35-4.08l-3.63-6.35l-18.2-31.49c-6.64-11.53-18.98-18.65-32.39-18.65
	l-43.71,0c0,0-0.95-1.64-1.91-4.32c-2.26-6.7-4.62-19.93,7.18-31.49c3.25-3.16,7.48-6.23,13.17-8.91c1.55-0.77,3.19-1.49,4.92-2.17
	c11.2-4.53,26.93-7.95,48.59-9.44c23.63,2.32,34.5,15.25,38.2,20.86c0,0,0.03,0.03,0.03,0.06l1.34,2.29
	c0.09,0.15,0.12,0.24,0.12,0.24l18.98,32.89L249,176.78L255.47,187.8z"/>
<linearGradient id="SVGID_3_" gradientUnits="userSpaceOnUse" x1="121.8312" y1="114.9429" x2="268.9117" y2="401.0868" gradientTransform="matrix(1 0 0 1 -10.602 5.6051)">
	<stop  offset="1.981938e-06" style="stop-color:#FDE600"/>
	<stop  offset="0.2997" style="stop-color:#F6C31B"/>
	<stop  offset="0.9687" style="stop-color:#E96D27"/>
</linearGradient>
<path class="st3" d="M337.28,385.33C327,403.15,308,414.11,287.44,414.11l-63.85,0c-20.71,0-39.86-11.05-50.2-29.02l-15.91-27.59
	l-21.6-37.3l-11.08-19.22L92.17,244.5L79.3,222.15l-19.81-34.29l-32.62-56.49C0.47,82.48,43.28,75.66,57.88,74.73l111.4,0
	c-1.73,0.12-3.49,0.18-5.15,0.3c-21.66,1.49-37.39,4.92-48.59,9.44c-1.73,0.69-3.37,1.4-4.92,2.17c-5.69,2.68-9.92,5.75-13.17,8.91
	c-11.8,11.56-9.44,24.79-7.18,31.49c0.95,2.68,1.91,4.32,1.91,4.32l32.62,56.49l11.08,19.28l21.6,37.36l32.62,56.49l2.35,4.02
	l30.27,52.5h0.06C222.79,357.5,260.74,424.24,337.28,385.33z"/>
<linearGradient id="SVGID_4_" gradientUnits="userSpaceOnUse" x1="233.3912" y1="287.0806" x2="461.9248" y2="287.0806" gradientTransform="matrix(1 0 0 1 -10.602 5.6051)">
	<stop  offset="1.912676e-06" style="stop-color:#2D2D82"/>
	<stop  offset="0.2048" style="stop-color:#582C84"/>
	<stop  offset="0.6687" style="stop-color:#AD2787"/>
	<stop  offset="0.9642" style="stop-color:#ED218C"/>
</linearGradient>
<path class="st4" d="M451.32,187.86l-32.68,56.62l-32.68,56.5l-23.82,41.3l-8.8,15.2l-15.5,26.94c0,0-0.06,0-0.06,0.06l-0.48,0.84
	c-76.56,38.91-114.51-27.83-114.51-27.83h45.85c12.03,0,23.16-6.4,29.21-16.82l7.72-13.35l15.2-26.34l32.56-56.5l8.8-15.2
	l23.82-41.42L451.32,187.86z"/>
<linearGradient id="SVGID_5_" gradientUnits="userSpaceOnUse" x1="366.9947" y1="239.1153" x2="790.2892" y2="235.7108" gradientTransform="matrix(1 0 0 1 -10.602 5.6051)">
	<stop  offset="0" style="stop-color:#2D5FAC"/>
	<stop  offset="0.2303" style="stop-color:#3C7ABE"/>
	<stop  offset="0.5963" style="stop-color:#57B0E3"/>
</linearGradient>
<path class="st5" d="M777.84,74.73l-19.81,34.42l-12.81,22.15v0.06l-130.67,0l-26.22,45.49l-6.4,11.01l-32.68,56.62l-17.48,30.29
	l-15.14,26.22l-32.68,56.5l-8.74,15.32l-23.88,41.3l-76.61,0.89l32.62-56.62l32.68-56.5l23.88-41.3l8.74-15.2v-0.06l32.62-56.56
	h0.06l15.14-26.22l17.48-30.29l-183.41-0.89c4.19-5.15,8.74-9.82,13.47-13.95c1.62-1.44,3.23-2.75,4.85-4.07
	c1.44-1.14,2.81-2.21,4.31-3.29c2.69-1.98,5.45-3.83,8.26-5.57c39.45-24.3,90.73-26.4,119.76-30.11c0.06,0,0.18,0,0.24-0.06
	c0.9-0.06,1.8-0.18,2.69-0.3c1.02-0.12,2.03-0.3,2.99-0.42c1.26-0.18,3.58-0.41,4.66-0.59L777.84,74.73z"/>
<path class="st1" d="M487.36,39.52c-0.06,0.06-0.18,0.06-0.24,0.06c-0.78,0.06-1.56,0.12-2.33,0.24
	C485.69,39.7,486.52,39.64,487.36,39.52z"/>
<radialGradient id="SVGID_6_" cx="356.324" cy="2560.6094" r="265.19" gradientTransform="matrix(1.027 0 0 0.113 -26.8523 212.7233)" gradientUnits="userSpaceOnUse">
	<stop  offset="0.1251" style="stop-color:#000000"/>
	<stop  offset="0.2299" style="stop-color:#111112"/>
	<stop  offset="0.3416" style="stop-color:#323133"/>
	<stop  offset="0.4566" style="stop-color:#4D4D4F"/>
	<stop  offset="0.5738" style="stop-color:#67686A"/>
	<stop  offset="0.6929" style="stop-color:#848688"/>
	<stop  offset="0.8134" style="stop-color:#A8AAAD"/>
	<stop  offset="0.9328" style="stop-color:#D5D6D8"/>
	<stop  offset="1" style="stop-color:#F2F2F3"/>
</radialGradient>
<ellipse class="st6" cx="339.09" cy="502" rx="272.35" ry="29.96"/>
<path class="st7" d="M339.09,384.43c-0.6,0.3-1.2,0.6-1.8,0.9"/>
<path class="st7" d="M159.85,44.63c23.63,2.32,34.5,15.25,38.2,20.86c0,0,0.03,0.03,0.03,0.06c0.72,1.1,1.16,1.94,1.34,2.29
	c0.09,0.15,0.12,0.24,0.12,0.24"/>
<path class="st7" d="M285.2,249.71c-28.9,50.44-55.89,6.32-59.17,0.6c-0.21-0.39-0.33-0.6-0.33-0.6"/>
<path class="st7" d="M301.41,108.31c16.15-27.98,48.5-33.1,63.22-33.96c0.18,0,0.36,0,0.51-0.03c4.41-0.21,7.12-0.06,7.12-0.06"/>
<linearGradient id="SVGID_7_" gradientUnits="userSpaceOnUse" x1="273.5864" y1="351.8909" x2="273.5864" y2="351.8909" gradientTransform="matrix(1 0 0 1 -10.602 5.6051)">
	<stop  offset="0" style="stop-color:#2D5FAC"/>
	<stop  offset="0.2303" style="stop-color:#3C7ABE"/>
	<stop  offset="0.5963" style="stop-color:#57B0E3"/>
</linearGradient>
<path class="st8" d="M262.98,357.5"/>
<path d="M792.74,165.76l26.06,0c1.84,0,3.95,1.32,4.74,3.16l51.07,110.58c1.05,2.1,2.11,3.16,3.16,3.16c1.05,0,2.11-1.05,3.16-3.16
	l50.81-110.58c0.79-1.84,2.9-3.16,5-3.16h25.8c2.11,0,2.9,1.32,2.11,3.16l-83.19,181.39c-0.79,1.58-2.11,2.37-3.69,2.37
	c-1.58,0-3.16-0.79-3.95-2.37l-83.19-181.39C789.85,167.07,790.64,165.76,792.74,165.76z"/>
<linearGradient id="SVGID_8_" gradientUnits="userSpaceOnUse" x1="1001.8474" y1="252.2957" x2="1121.1102" y2="252.2957" gradientTransform="matrix(1 0 0 1 -10.602 5.6051)">
	<stop  offset="1.912676e-06" style="stop-color:#2D2D82"/>
	<stop  offset="0.1648" style="stop-color:#582C84"/>
	<stop  offset="0.5384" style="stop-color:#AD2787"/>
	<stop  offset="0.7201" style="stop-color:#DB228A"/>
	<stop  offset="0.9642" style="stop-color:#F387B2"/>
</linearGradient>
<path class="st9" d="M991.25,191.82v-22.64c0-2.11,1.32-3.42,3.42-3.42l112.42,0c2.11,0,3.42,1.32,3.42,3.42v22.64
	c0,2.1-1.32,3.42-3.42,3.42l-112.42,0C992.56,195.24,991.25,193.92,991.25,191.82z M991.25,246.58c0-2.11,1.32-3.42,3.42-3.42
	l112.42,0c2.11,0,3.42,1.32,3.42,3.42v22.64c0,2.11-1.32,3.42-3.42,3.42l-112.42,0c-2.11,0-3.42-1.32-3.42-3.42V246.58z
	 M994.67,320.56l112.42,0c2.11,0,3.42,1.32,3.42,3.42v22.64c0,2.11-1.32,3.42-3.42,3.42l-112.42,0c-2.11,0-3.42-1.32-3.42-3.42
	v-22.64C991.25,321.88,992.56,320.56,994.67,320.56z"/>
<path d="M1146.31,169.18c0-2.11,1.32-3.42,3.42-3.42h3.95c1.84,0,4.21,1.05,5.53,2.37l100.83,108.2c1.32,1.32,2.11,1.84,3.16,1.84
	c1.05,0,1.84-1.32,1.84-3.95l0-105.04c0-2.11,1.32-3.42,3.42-3.42h24.75c2.11,0,3.42,1.32,3.42,3.42l0,177.44
	c0,2.11-1.32,3.42-3.42,3.42h-3.69c-2.11,0-4.48-1.05-5.79-2.63l-135.06-145.32c-1.32-1.58-2.37-3.95-2.37-6.05V169.18z
	 M1146.31,242.1c0-2.1,1.05-2.37,2.37-0.79l26.85,28.96c1.32,1.32,2.37,3.68,2.37,5.79v70.55c0,2.11-1.32,3.42-3.42,3.42h-24.75
	c-2.11,0-3.42-1.32-3.42-3.42V242.1z"/>
<path d="M1336.65,191.82v-22.64c0-2.11,1.32-3.42,3.42-3.42l43.7,0c7.11,0,12.11,0,15,0.26c57.66,3.95,86.62,47.92,86.62,91.88
	c0,43.97-28.96,86.62-86.62,91.89c-2.9,0.26-7.9,0.26-15,0.26h-43.7c-2.11,0-3.42-1.32-3.42-3.42V224.2c0-2.1,1.32-3.42,3.42-3.42
	l24.75,0c2.11,0,3.42,1.32,3.42,3.42l0,88.72c0,4.48,2.9,7.37,7.37,7.37h6.85c7.64,0,12.11,0,15.01-0.27
	c75.56-7.37,73.46-124.79-7.63-124.79l-49.76,0C1337.96,195.24,1336.65,193.92,1336.65,191.82z"/>
<path d="M1574.37,191.82v-22.64c0-2.11,1.32-3.42,3.42-3.42l144.8,0c2.11,0,3.42,1.32,3.42,3.42l0,22.64c0,2.1-1.32,3.42-3.42,3.42
	l-144.8,0C1575.69,195.24,1574.37,193.92,1574.37,191.82z M1634.14,224.2c0-2.1,1.58-3.42,3.42-3.42l24.75,0
	c2.1,0,3.42,1.32,3.42,3.42l0,122.42c0,2.11-1.32,3.42-3.42,3.42h-24.75c-1.84,0-3.42-1.32-3.42-3.42L1634.14,224.2z"/>
<linearGradient id="SVGID_9_" gradientUnits="userSpaceOnUse" x1="1761.8855" y1="252.2959" x2="1881.1459" y2="252.2959" gradientTransform="matrix(1 0 0 1 -10.602 5.6051)">
	<stop  offset="1.912676e-06" style="stop-color:#2D2D82"/>
	<stop  offset="0.1648" style="stop-color:#582C84"/>
	<stop  offset="0.5384" style="stop-color:#AD2787"/>
	<stop  offset="0.7201" style="stop-color:#DB228A"/>
	<stop  offset="0.9642" style="stop-color:#F387B2"/>
</linearGradient>
<path class="st10" d="M1751.28,191.82v-22.64c0-2.11,1.32-3.42,3.42-3.42l112.42,0c2.1,0,3.42,1.32,3.42,3.42v22.64
	c0,2.1-1.32,3.42-3.42,3.42l-112.42,0C1752.6,195.24,1751.28,193.92,1751.28,191.82z M1751.28,246.58c0-2.11,1.32-3.42,3.42-3.42
	l112.42,0c2.1,0,3.42,1.32,3.42,3.42v22.64c0,2.11-1.32,3.42-3.42,3.42l-112.42,0c-2.11,0-3.42-1.32-3.42-3.42L1751.28,246.58z
	 M1754.71,320.56l112.42,0c2.1,0,3.42,1.32,3.42,3.42v22.64c0,2.11-1.32,3.42-3.42,3.42l-112.42,0c-2.11,0-3.42-1.32-3.42-3.42
	v-22.64C1751.28,321.88,1752.6,320.56,1754.71,320.56z"/>
<path d="M2050.34,332.69l-14.49-20.03c-1.02-1.56-2.87-1.85-4.47-0.53c-6.32,5.3-16.82,10.55-33.93,10.55
	c-82.94,0-82.94-129.56,0-129.56c13.95,0,25.81,5.3,33.69,11.08c1.85,1.31,3.4,1.07,4.72-0.78l14.24-20.27
	c1.07-1.6,1.07-3.69-0.78-4.76c-16.09-9.19-33.74-16.58-52.16-16.58c-63.44,0-95.04,47.93-95.04,96.11
	c0,47.89,31.6,96.06,95.04,96.06c22.95,0,38.21-5.54,52.41-16.58C2051.17,336.34,2051.41,334.25,2050.34,332.69z"/>
<path d="M2093,165.76l24.75,0c2.11,0,3.42,1.32,3.42,3.42v66.6c0,4.48,2.9,7.37,7.37,7.37l73.18,0c4.48,0,7.37-2.9,7.37-7.37v-66.6
	c0-2.11,1.58-3.42,3.42-3.42h24.75c2.1,0,3.42,1.32,3.42,3.42v177.44c0,2.11-1.32,3.42-3.42,3.42h-24.75
	c-1.84,0-3.42-1.32-3.42-3.42v-66.61c0-4.47-2.9-7.37-7.37-7.37l-108.73,0c-2.1,0-3.42-1.32-3.42-3.42V169.18
	C2089.58,167.07,2090.9,165.76,2093,165.76z M2093,300.55h24.75c2.11,0,3.42,1.32,3.42,3.42v42.65c0,2.11-1.31,3.42-3.42,3.42H2093
	c-2.1,0-3.42-1.32-3.42-3.42v-42.65C2089.58,301.87,2090.9,300.55,2093,300.55z"/>
</svg>
